<svg width="41" height="40" viewBox="0 0 41 40" fill="none" xmlns="http://www.w3.org/2000/svg">
<g clip-path="url(#clip0_2221_6066)">
<path d="M18.3784 0.0535027C23.2742 -0.308285 28.1291 1.17416 32.0034 4.21464C32.6324 4.70826 33.2279 5.23791 33.7885 5.79862C33.4526 6.0214 33.1348 6.28288 32.8393 6.58085C31.6212 7.80941 31.0374 9.4351 31.0864 11.0447C30.7466 11.2527 30.4259 11.5045 30.1323 11.8006C29.3195 12.6203 28.8411 13.6501 28.6977 14.7166C28.0443 13.6002 27.1854 12.6063 26.1538 11.7967C24.1408 10.217 21.6184 9.44665 19.0747 9.63456C16.5307 9.82256 14.1456 10.9552 12.3823 12.8142C10.619 14.6733 9.60239 17.1264 9.52878 19.698C9.45517 22.2697 10.3298 24.7776 11.9839 26.7361C13.6379 28.6947 15.9539 29.9648 18.4829 30.3006C21.0118 30.6362 23.5742 30.0135 25.6743 28.5535C26.9057 27.6974 27.9245 26.5874 28.6772 25.3123C28.7887 26.4429 29.2736 27.5429 30.1323 28.409C30.4247 28.7039 30.7443 28.9544 31.0825 29.1619C31.0868 30.7042 31.6726 32.245 32.8393 33.4217C33.1333 33.7181 33.4496 33.978 33.7837 34.2C32.9554 35.0279 32.0527 35.7868 31.0805 36.4627C27.0387 39.2728 22.1068 40.4711 17.2397 39.825C12.3727 39.1789 7.91609 36.7348 4.73288 32.9656C1.54964 29.1964 -0.133402 24.3699 0.00826851 19.4207C0.149955 14.4715 2.10693 9.75132 5.50046 6.17362C8.89397 2.59603 13.4825 0.415319 18.3784 0.0535027ZM39.351 16.5135L39.0737 16.5623C39.1635 16.5304 39.2528 16.497 39.3413 16.4607C39.3444 16.4782 39.348 16.4959 39.351 16.5135Z" fill="#E852A2"/>
<line x1="0.535563" y1="-0.535563" x2="4.75211" y2="-0.535563" transform="matrix(-0.824348 0.566083 -0.5595 -0.82883 25.1797 3.74219)" stroke="#009402" stroke-width="1.07113" stroke-linecap="round"/>
<line x1="0.535557" y1="-0.535557" x2="4.74076" y2="-0.535557" transform="matrix(-0.965368 -0.260893 0.256759 -0.966475 16.4062 5.92725)" stroke="#FFD700" stroke-width="1.07111" stroke-linecap="round"/>
<line x1="0.535563" y1="-0.535563" x2="4.75211" y2="-0.535563" transform="matrix(-0.824348 0.566083 -0.5595 -0.82883 9.875 10.8975)" stroke="#009402" stroke-width="1.07113" stroke-linecap="round"/>
<line x1="0.535562" y1="-0.535562" x2="4.74908" y2="-0.535562" transform="matrix(-0.864162 -0.503213 0.496794 -0.867869 7.79688 22.2832)" stroke="#FFD700" stroke-width="1.07112" stroke-linecap="round"/>
<line x1="0.535563" y1="-0.535563" x2="4.75211" y2="-0.535563" transform="matrix(-0.824348 0.566083 -0.5595 -0.82883 9.54688 26.9399)" stroke="#009402" stroke-width="1.07113" stroke-linecap="round"/>
<line x1="0.535557" y1="-0.535557" x2="4.74076" y2="-0.535557" transform="matrix(-0.965368 -0.260893 0.256759 -0.966475 16.4062 33.6147)" stroke="#FFD700" stroke-width="1.07111" stroke-linecap="round"/>
<line x1="0.535563" y1="-0.535563" x2="4.75211" y2="-0.535563" transform="matrix(-0.824348 0.566083 -0.5595 -0.82883 24.9922 32.9268)" stroke="#009402" stroke-width="1.07113" stroke-linecap="round"/>
</g>
<defs>
<clipPath id="clip0_2221_6066">
<rect width="40.8529" height="39.9881" fill="white"/>
</clipPath>
</defs>
</svg>
