<svg width="131" height="40" viewBox="0 0 131 40" fill="none" xmlns="http://www.w3.org/2000/svg">
<path d="M45.1004 18.4999V17.0245H43.6086V9.45076H45.1004V7.95896H49.7234V9.45076H51.2316V12.5655H49.5594V9.6147H45.2643V16.8606H49.5594V13.877H51.2316V17.0245H49.7234V18.4999H45.1004ZM54.0338 18.4999V10.9262H55.5256V9.45076H57.001V7.95896H58.6732V9.45076H60.1486V10.9262H61.6568V18.4999H59.9846V15.5327H55.6895V18.4999H54.0338ZM55.6895 13.877H59.9846V11.0901H58.5092V9.6147H57.165V11.0901H55.6895V13.877ZM64.459 18.4999V9.45076H65.9508V7.95896H67.5902V9.6147H66.1148V12.418H67.4262V10.9262H68.9344V9.45076H70.4098V7.95896H72.082V9.6147H70.5738V11.0901H69.0984V12.5655H67.5902V13.877H69.0984V15.3688H70.5738V16.8606H72.082V18.4999H70.4098V17.0245H68.9344V15.5327H67.4262V14.0409H66.1148V18.4999H64.459ZM75.8797 18.4999V17.0245H74.3879V9.45076H75.8797V7.95896H80.5027V9.45076H82.0109V11.0901H80.3388V9.6147H76.0437V12.418H79.0273V14.0409H76.0437V16.8606H80.3388V15.3688H82.0109V17.0245H80.5027V18.4999H75.8797ZM90.4065 18.4999V17.0245H88.9147V12.418H90.4065V10.9262H95.0295V12.418H96.5377V14.0409H94.8655V12.5655H90.5704V16.8606H94.8655V15.3688H96.5377V17.0245H95.0295V18.4999H90.4065ZM100.335 18.4999V17.0245H98.8436V12.418H100.335V10.9262H104.958V12.418H106.467V17.0245H104.958V18.4999H100.335ZM100.499 16.8606H104.794V12.5655H100.499V16.8606ZM109.269 18.4999V10.9262H115.384V12.418H116.892V18.4999H115.22V12.5655H110.925V18.4999H109.269ZM119.374 18.4999V9.45076H120.866V7.95896H125.489V9.45076H126.997V11.0901H125.325V9.6147H121.03V12.418H124.013V14.0409H121.03V18.4999H119.374Z" fill="white"/>
<path d="M43.8316 32.3687V31.1621L46.7561 28.0539C47.2545 27.5206 47.6173 27.0484 47.8447 26.6375C48.072 26.2178 48.1857 25.8156 48.1857 25.4309C48.1857 24.8976 48.037 24.4779 47.7398 24.1719C47.4512 23.8659 47.0534 23.7129 46.5463 23.7129C45.9867 23.7129 45.5452 23.8703 45.2217 24.185C44.907 24.4998 44.7496 24.9326 44.7496 25.4834H43.5693C43.5867 24.9064 43.7179 24.408 43.9627 23.9883C44.2163 23.5599 44.5616 23.232 44.9988 23.0047C45.4447 22.7774 45.9605 22.6637 46.5463 22.6637C47.1234 22.6637 47.6217 22.7774 48.0414 23.0047C48.4698 23.2233 48.7977 23.5381 49.025 23.949C49.2523 24.3599 49.366 24.8495 49.366 25.4178C49.366 25.9599 49.2217 26.4976 48.9332 27.0309C48.6447 27.5643 48.1725 28.1719 47.5168 28.8539L45.1561 31.2932H49.5234V32.3687H43.8316ZM54.5543 32.3687V30.2703H50.2264V28.4211L54.0166 22.7949H55.3018L51.4068 28.6703V29.1949H54.5543V26.8605H55.7346V32.3687H54.5543ZM56.7787 28.5654V27.5162H62.5492V28.5654H56.7787ZM63.4883 32.3687V31.1621L66.4129 28.0539C66.9113 27.5206 67.2741 27.0484 67.5014 26.6375C67.7288 26.2178 67.8424 25.8156 67.8424 25.4309C67.8424 24.8976 67.6938 24.4779 67.3965 24.1719C67.108 23.8659 66.7102 23.7129 66.2031 23.7129C65.6435 23.7129 65.202 23.8703 64.8785 24.185C64.5637 24.4998 64.4064 24.9326 64.4064 25.4834H63.226C63.2435 24.9064 63.3747 24.408 63.6195 23.9883C63.873 23.5599 64.2184 23.232 64.6555 23.0047C65.1014 22.7774 65.6173 22.6637 66.2031 22.6637C66.7801 22.6637 67.2785 22.7774 67.6982 23.0047C68.1266 23.2233 68.4544 23.5381 68.6818 23.949C68.9091 24.3599 69.0227 24.8495 69.0227 25.4178C69.0227 25.9599 68.8785 26.4976 68.59 27.0309C68.3014 27.5643 67.8293 28.1719 67.1736 28.8539L64.8129 31.2932H69.1801V32.3687H63.4883ZM72.7422 32.4998C71.9641 32.4998 71.3258 32.2987 70.8275 31.8965C70.3291 31.4943 70.0362 30.9523 69.9488 30.2703H71.1291C71.1728 30.6462 71.3346 30.9391 71.6143 31.149C71.8941 31.3501 72.2745 31.4506 72.7553 31.4506C73.3061 31.4506 73.7171 31.302 73.9881 31.0047C74.2679 30.7075 74.4078 30.2878 74.4078 29.7457V28.8146C74.4078 28.2725 74.2679 27.8528 73.9881 27.5555C73.7171 27.2583 73.3105 27.1096 72.7684 27.1096C72.4275 27.1096 72.1302 27.2014 71.8766 27.385C71.6231 27.5599 71.4395 27.796 71.3258 28.0932H70.1455L70.2111 22.7949H75.2471V23.8703H71.352L71.3127 27.0572H71.6799L71.3127 27.3982C71.3127 26.9872 71.4745 26.6637 71.798 26.4277C72.1302 26.1916 72.5717 26.0736 73.1225 26.0736C73.9007 26.0648 74.504 26.3053 74.9324 26.7949C75.3695 27.2758 75.5881 27.949 75.5881 28.8146V29.7457C75.5881 30.5938 75.3389 31.267 74.8406 31.7654C74.3422 32.255 73.6428 32.4998 72.7422 32.4998ZM79.3207 32.4998C78.9885 32.4998 78.7218 32.4036 78.5207 32.2113C78.3283 32.0189 78.2322 31.761 78.2322 31.4375C78.2322 31.0965 78.3283 30.8255 78.5207 30.6244C78.7218 30.4233 78.9885 30.3228 79.3207 30.3228C79.6529 30.3228 79.9152 30.4233 80.1076 30.6244C80.3087 30.8255 80.4092 31.0965 80.4092 31.4375C80.4092 31.761 80.3087 32.0189 80.1076 32.2113C79.9152 32.4036 79.6529 32.4998 79.3207 32.4998ZM85.873 32.4998C85.2872 32.4998 84.7757 32.3861 84.3385 32.1588C83.9101 31.9228 83.5779 31.5949 83.3418 31.1752C83.1057 30.7468 82.9877 30.2484 82.9877 29.6801V25.4834C82.9877 24.9064 83.1057 24.408 83.3418 23.9883C83.5779 23.5687 83.9101 23.2452 84.3385 23.0178C84.7757 22.7818 85.2872 22.6637 85.873 22.6637C86.4675 22.6637 86.979 22.7818 87.4074 23.0178C87.8358 23.2452 88.168 23.5687 88.4041 23.9883C88.6402 24.408 88.7582 24.9064 88.7582 25.4834V29.6801C88.7582 30.2484 88.6402 30.7468 88.4041 31.1752C88.168 31.5949 87.8314 31.9228 87.3943 32.1588C86.9658 32.3861 86.4587 32.4998 85.873 32.4998ZM85.873 31.49C86.3975 31.49 86.8172 31.3238 87.132 30.9916C87.4555 30.6506 87.6172 30.2135 87.6172 29.6801V25.4834C87.6172 24.9501 87.4555 24.5173 87.132 24.185C86.8172 23.8441 86.3975 23.6736 85.873 23.6736C85.3484 23.6736 84.9243 23.8441 84.6008 24.185C84.2861 24.5173 84.1287 24.9501 84.1287 25.4834V29.6801C84.1287 30.2135 84.2861 30.6506 84.6008 30.9916C84.9243 31.3238 85.3484 31.49 85.873 31.49ZM85.873 28.3555C85.6369 28.3555 85.4445 28.2812 85.2959 28.1326C85.156 27.984 85.0861 27.7872 85.0861 27.5424C85.0861 27.3064 85.156 27.1184 85.2959 26.9785C85.4445 26.8299 85.6369 26.7555 85.873 26.7555C86.109 26.7555 86.297 26.8299 86.4369 26.9785C86.5855 27.1184 86.6598 27.3064 86.6598 27.5424C86.6598 27.7872 86.5855 27.984 86.4369 28.1326C86.297 28.2812 86.109 28.3555 85.873 28.3555ZM90.9432 32.3687L93.658 28.0146L93.6055 27.9752C93.4394 28.22 93.2121 28.408 92.9236 28.5391C92.635 28.6703 92.3115 28.7359 91.9531 28.7359C91.4372 28.7359 90.9826 28.6135 90.5891 28.3687C90.2044 28.1238 89.9072 27.7785 89.6973 27.3326C89.4875 26.8779 89.3826 26.349 89.3826 25.7457C89.3826 25.1249 89.5094 24.5872 89.7629 24.1326C90.0165 23.6692 90.3706 23.3107 90.8252 23.0572C91.2799 22.7949 91.8088 22.6637 92.4121 22.6637C93.0241 22.6637 93.5574 22.7949 94.0121 23.0572C94.4755 23.3107 94.8339 23.6692 95.0875 24.1326C95.3411 24.5872 95.4678 25.1249 95.4678 25.7457C95.4678 26.2266 95.3979 26.6987 95.258 27.1621C95.1268 27.6255 94.9258 28.0714 94.6547 28.4998L92.2547 32.3687H90.9432ZM92.4252 27.7785C92.9848 27.7785 93.435 27.5949 93.776 27.2277C94.117 26.8517 94.2875 26.3577 94.2875 25.7457C94.2875 25.1337 94.117 24.6441 93.776 24.2768C93.435 23.9009 92.9848 23.7129 92.4252 23.7129C91.8656 23.7129 91.4154 23.9009 91.0744 24.2768C90.7334 24.6441 90.5629 25.1337 90.5629 25.7457C90.5629 26.3577 90.7334 26.8517 91.0744 27.2277C91.4154 27.5949 91.8656 27.7785 92.4252 27.7785ZM98.9775 32.4998C98.6452 32.4998 98.3786 32.4036 98.1775 32.2113C97.9851 32.0189 97.8889 31.761 97.8889 31.4375C97.8889 31.0965 97.9851 30.8255 98.1775 30.6244C98.3786 30.4233 98.6452 30.3228 98.9775 30.3228C99.3097 30.3228 99.572 30.4233 99.7643 30.6244C99.9654 30.8255 100.066 31.0965 100.066 31.4375C100.066 31.761 99.9654 32.0189 99.7643 32.2113C99.572 32.4036 99.3097 32.4998 98.9775 32.4998ZM102.802 32.3687V31.1621L105.726 28.0539C106.225 27.5206 106.588 27.0484 106.815 26.6375C107.042 26.2178 107.156 25.8156 107.156 25.4309C107.156 24.8976 107.007 24.4779 106.71 24.1719C106.422 23.8659 106.024 23.7129 105.517 23.7129C104.957 23.7129 104.516 23.8703 104.192 24.185C103.877 24.4998 103.72 24.9326 103.72 25.4834H102.54C102.557 24.9064 102.688 24.408 102.933 23.9883C103.187 23.5599 103.532 23.232 103.969 23.0047C104.415 22.7774 104.931 22.6637 105.517 22.6637C106.094 22.6637 106.592 22.7774 107.012 23.0047C107.44 23.2233 107.768 23.5381 107.995 23.949C108.223 24.3599 108.336 24.8495 108.336 25.4178C108.336 25.9599 108.192 26.4976 107.903 27.0309C107.615 27.5643 107.143 28.1719 106.487 28.8539L104.126 31.2932H108.494V32.3687H102.802ZM112.082 32.4998C111.496 32.4998 110.985 32.3861 110.548 32.1588C110.119 31.9228 109.787 31.5949 109.551 31.1752C109.315 30.7468 109.197 30.2484 109.197 29.6801V25.4834C109.197 24.9064 109.315 24.408 109.551 23.9883C109.787 23.5687 110.119 23.2452 110.548 23.0178C110.985 22.7818 111.496 22.6637 112.082 22.6637C112.676 22.6637 113.188 22.7818 113.616 23.0178C114.045 23.2452 114.377 23.5687 114.613 23.9883C114.849 24.408 114.967 24.9064 114.967 25.4834V29.6801C114.967 30.2484 114.849 30.7468 114.613 31.1752C114.377 31.5949 114.04 31.9228 113.603 32.1588C113.175 32.3861 112.668 32.4998 112.082 32.4998ZM112.082 31.49C112.607 31.49 113.026 31.3238 113.341 30.9916C113.664 30.6506 113.826 30.2135 113.826 29.6801V25.4834C113.826 24.9501 113.664 24.5173 113.341 24.185C113.026 23.8441 112.607 23.6736 112.082 23.6736C111.557 23.6736 111.133 23.8441 110.81 24.185C110.495 24.5173 110.338 24.9501 110.338 25.4834V29.6801C110.338 30.2135 110.495 30.6506 110.81 30.9916C111.133 31.3238 111.557 31.49 112.082 31.49ZM112.082 28.3555C111.846 28.3555 111.654 28.2812 111.505 28.1326C111.365 27.984 111.295 27.7872 111.295 27.5424C111.295 27.3064 111.365 27.1184 111.505 26.9785C111.654 26.8299 111.846 26.7555 112.082 26.7555C112.318 26.7555 112.506 26.8299 112.646 26.9785C112.795 27.1184 112.869 27.3064 112.869 27.5424C112.869 27.7872 112.795 27.984 112.646 28.1326C112.506 28.2812 112.318 28.3555 112.082 28.3555ZM115.906 32.3687V31.1621L118.831 28.0539C119.329 27.5206 119.692 27.0484 119.919 26.6375C120.147 26.2178 120.26 25.8156 120.26 25.4309C120.26 24.8976 120.112 24.4779 119.815 24.1719C119.526 23.8659 119.128 23.7129 118.621 23.7129C118.062 23.7129 117.62 23.8703 117.297 24.185C116.982 24.4998 116.824 24.9326 116.824 25.4834H115.644C115.662 24.9064 115.793 24.408 116.038 23.9883C116.291 23.5599 116.636 23.232 117.074 23.0047C117.519 22.7774 118.035 22.6637 118.621 22.6637C119.198 22.6637 119.697 22.7774 120.116 23.0047C120.545 23.2233 120.872 23.5381 121.1 23.949C121.327 24.3599 121.441 24.8495 121.441 25.4178C121.441 25.9599 121.297 26.4976 121.008 27.0309C120.719 27.5643 120.247 28.1719 119.592 28.8539L117.231 31.2932H121.598V32.3687H115.906ZM125.2 32.4998C124.588 32.4998 124.05 32.373 123.586 32.1195C123.132 31.8572 122.778 31.4943 122.524 31.0309C122.271 30.5676 122.144 30.0299 122.144 29.4178C122.144 28.937 122.209 28.4648 122.341 28.0014C122.48 27.5381 122.686 27.0921 122.957 26.6637L125.357 22.7949H126.668L123.954 27.149L124.006 27.1883C124.172 26.9435 124.4 26.7555 124.688 26.6244C124.977 26.4932 125.3 26.4277 125.659 26.4277C126.183 26.4277 126.638 26.5501 127.023 26.7949C127.407 27.0397 127.705 27.385 127.914 27.8309C128.124 28.2768 128.229 28.8058 128.229 29.4178C128.229 30.0299 128.102 30.5676 127.849 31.0309C127.595 31.4943 127.241 31.8572 126.786 32.1195C126.341 32.373 125.812 32.4998 125.2 32.4998ZM125.186 31.4506C125.746 31.4506 126.196 31.267 126.537 30.8998C126.878 30.5238 127.049 30.0299 127.049 29.4178C127.049 28.8058 126.878 28.3162 126.537 27.949C126.196 27.573 125.746 27.385 125.186 27.385C124.627 27.385 124.177 27.573 123.836 27.949C123.495 28.3162 123.324 28.8058 123.324 29.4178C123.324 30.0299 123.495 30.5238 123.836 30.8998C124.177 31.267 124.627 31.4506 125.186 31.4506Z" fill="white"/>
<g clip-path="url(#clip0_2150_6767)">
<path d="M19.6206 0.0535027C24.5164 -0.308285 29.3713 1.17416 33.2456 4.21464C33.8745 4.70826 34.4701 5.23791 35.0307 5.79862C34.6948 6.0214 34.377 6.28288 34.0815 6.58085C32.8634 7.80941 32.2796 9.4351 32.3286 11.0447C31.9888 11.2527 31.668 11.5045 31.3745 11.8006C30.5617 12.6203 30.0833 13.6501 29.9399 14.7166C29.2865 13.6002 28.4276 12.6063 27.396 11.7967C25.3829 10.217 22.8606 9.44665 20.3169 9.63456C17.7729 9.82256 15.3878 10.9552 13.6245 12.8142C11.8611 14.6733 10.8446 17.1264 10.771 19.698C10.6974 22.2697 11.572 24.7776 13.226 26.7361C14.8801 28.6947 17.1961 29.9648 19.7251 30.3006C22.2539 30.6362 24.8164 30.0135 26.9165 28.5535C28.1479 27.6974 29.1667 26.5874 29.9194 25.3123C30.0308 26.4429 30.5158 27.5429 31.3745 28.409C31.6669 28.7039 31.9864 28.9544 32.3247 29.1619C32.3289 30.7042 32.9148 32.245 34.0815 33.4217C34.3754 33.7181 34.6918 33.978 35.0258 34.2C34.1976 35.0279 33.2949 35.7868 32.3227 36.4627C28.2809 39.2728 23.349 40.4711 18.4819 39.825C13.6148 39.1789 9.15828 36.7348 5.97507 32.9656C2.79183 29.1964 1.10879 24.3699 1.25046 19.4207C1.39214 14.4715 3.34912 9.75132 6.74264 6.17362C10.1362 2.59603 14.7247 0.415319 19.6206 0.0535027ZM40.5932 16.5135L40.3159 16.5623C40.4056 16.5304 40.495 16.497 40.5835 16.4607C40.5866 16.4782 40.5902 16.4959 40.5932 16.5135Z" fill="#E852A2"/>
<line x1="0.535563" y1="-0.535563" x2="4.75211" y2="-0.535563" transform="matrix(-0.824348 0.566083 -0.5595 -0.82883 26.4219 3.74219)" stroke="#009402" stroke-width="1.07113" stroke-linecap="round"/>
<line x1="0.535557" y1="-0.535557" x2="4.74076" y2="-0.535557" transform="matrix(-0.965368 -0.260893 0.256759 -0.966475 17.6484 5.92725)" stroke="#FFD700" stroke-width="1.07111" stroke-linecap="round"/>
<line x1="0.535563" y1="-0.535563" x2="4.75211" y2="-0.535563" transform="matrix(-0.824348 0.566083 -0.5595 -0.82883 11.1172 10.8975)" stroke="#009402" stroke-width="1.07113" stroke-linecap="round"/>
<line x1="0.535562" y1="-0.535562" x2="4.74908" y2="-0.535562" transform="matrix(-0.864162 -0.503213 0.496794 -0.867869 9.03906 22.2832)" stroke="#FFD700" stroke-width="1.07112" stroke-linecap="round"/>
<line x1="0.535563" y1="-0.535563" x2="4.75211" y2="-0.535563" transform="matrix(-0.824348 0.566083 -0.5595 -0.82883 10.7891 26.9399)" stroke="#009402" stroke-width="1.07113" stroke-linecap="round"/>
<line x1="0.535557" y1="-0.535557" x2="4.74076" y2="-0.535557" transform="matrix(-0.965368 -0.260893 0.256759 -0.966475 17.6484 33.6147)" stroke="#FFD700" stroke-width="1.07111" stroke-linecap="round"/>
<line x1="0.535563" y1="-0.535563" x2="4.75211" y2="-0.535563" transform="matrix(-0.824348 0.566083 -0.5595 -0.82883 26.2344 32.9268)" stroke="#009402" stroke-width="1.07113" stroke-linecap="round"/>
</g>
<defs>
<clipPath id="clip0_2150_6767">
<rect width="40.8529" height="39.9881" fill="white" transform="translate(1.24219)"/>
</clipPath>
</defs>
</svg>
