<svg width="133" height="40" viewBox="0 0 133 40" fill="none" xmlns="http://www.w3.org/2000/svg">
<path d="M48.459 25.2295C47.0601 25.2295 45.9508 24.8361 45.1311 24.0492C44.3115 23.2514 43.9016 22.1038 43.9016 20.6066V17.918C43.9016 16.4208 44.3115 15.2787 45.1311 14.4918C45.9508 13.694 47.0601 13.2951 48.459 13.2951C49.8361 13.2951 50.8962 13.6776 51.6393 14.4426C52.3934 15.2077 52.7705 16.2514 52.7705 17.5738V17.6721H51.0164V17.5246C51.0164 16.7486 50.8033 16.1148 50.377 15.623C49.9617 15.1311 49.3224 14.8852 48.459 14.8852C47.5847 14.8852 46.9016 15.153 46.4098 15.6885C45.918 16.2131 45.6721 16.9454 45.6721 17.8852V20.6393C45.6721 21.5683 45.918 22.3005 46.4098 22.8361C46.9016 23.3716 47.5847 23.6393 48.459 23.6393C49.3224 23.6393 49.9617 23.3934 50.377 22.9016C50.8033 22.3989 51.0164 21.765 51.0164 21V20.7213H52.7705V20.9508C52.7705 22.2732 52.3934 23.3169 51.6393 24.082C50.8962 24.847 49.8361 25.2295 48.459 25.2295ZM54.5859 25L57.8646 13.5246H60.9794L64.2417 25H62.422L61.6679 22.2951H57.1761L56.422 25H54.5859ZM57.6187 20.6557H61.2253L59.5531 14.623H59.2909L57.6187 20.6557ZM66.616 25V13.5246H68.3865V18.2951H68.6488L72.9275 13.5246H75.239L70.0587 19.1803L75.4193 25H73.0423L68.6488 20.1311H68.3865V25H66.616ZM77.5695 25V13.5246H84.7991V15.1311H79.34V18.4262H84.34V20.0328H79.34V23.3934H84.881V25H77.5695ZM96.3478 25.2295C95.5719 25.2295 94.867 25.0656 94.2331 24.7377C93.6101 24.4098 93.1129 23.9344 92.7413 23.3115C92.3806 22.6885 92.2003 21.9399 92.2003 21.0656V20.8525C92.2003 19.9781 92.3806 19.235 92.7413 18.623C93.1129 18 93.6101 17.5246 94.2331 17.1967C94.867 16.8579 95.5719 16.6885 96.3478 16.6885C97.1238 16.6885 97.785 16.8306 98.3315 17.1148C98.8779 17.3989 99.3151 17.776 99.6429 18.2459C99.9817 18.7158 100.2 19.235 100.299 19.8033L98.6593 20.1475C98.6047 19.7869 98.4899 19.459 98.3151 19.1639C98.1402 18.8689 97.8943 18.6339 97.5774 18.459C97.2604 18.2842 96.8615 18.1967 96.3806 18.1967C95.9107 18.1967 95.4845 18.306 95.1019 18.5246C94.7304 18.7322 94.4353 19.0383 94.2167 19.4426C93.9981 19.8361 93.8888 20.3169 93.8888 20.8852V21.0328C93.8888 21.6011 93.9981 22.0874 94.2167 22.4918C94.4353 22.8962 94.7304 23.2022 95.1019 23.4098C95.4845 23.6175 95.9107 23.7213 96.3806 23.7213C97.091 23.7213 97.632 23.541 98.0036 23.1803C98.3752 22.8087 98.6101 22.3388 98.7085 21.7705L100.348 22.1475C100.217 22.7049 99.9817 23.2186 99.6429 23.6885C99.3151 24.1585 98.8779 24.5355 98.3315 24.8197C97.785 25.0929 97.1238 25.2295 96.3478 25.2295ZM106.902 25.2295C106.093 25.2295 105.372 25.0656 104.738 24.7377C104.115 24.3989 103.623 23.918 103.263 23.2951C102.902 22.6721 102.722 21.9344 102.722 21.082V20.8361C102.722 19.9836 102.902 19.2514 103.263 18.6393C103.623 18.0164 104.115 17.5355 104.738 17.1967C105.372 16.8579 106.093 16.6885 106.902 16.6885C107.711 16.6885 108.432 16.8579 109.066 17.1967C109.7 17.5355 110.197 18.0164 110.558 18.6393C110.918 19.2514 111.099 19.9836 111.099 20.8361V21.082C111.099 21.9344 110.918 22.6721 110.558 23.2951C110.197 23.918 109.7 24.3989 109.066 24.7377C108.432 25.0656 107.711 25.2295 106.902 25.2295ZM106.902 23.7213C107.645 23.7213 108.246 23.4863 108.705 23.0164C109.175 22.5355 109.41 21.8743 109.41 21.0328V20.8852C109.41 20.0437 109.181 19.388 108.722 18.918C108.263 18.4372 107.656 18.1967 106.902 18.1967C106.17 18.1967 105.569 18.4372 105.099 18.918C104.64 19.388 104.41 20.0437 104.41 20.8852V21.0328C104.41 21.8743 104.64 22.5355 105.099 23.0164C105.569 23.4863 106.17 23.7213 106.902 23.7213ZM114.02 25V16.918H115.676V18.1311H115.939C116.092 17.8033 116.365 17.4973 116.758 17.2131C117.152 16.929 117.736 16.7869 118.512 16.7869C119.124 16.7869 119.665 16.9235 120.135 17.1967C120.616 17.4699 120.993 17.8579 121.266 18.3607C121.54 18.8525 121.676 19.4481 121.676 20.1475V25H119.988V20.2787C119.988 19.5792 119.813 19.0656 119.463 18.7377C119.113 18.3989 118.633 18.2295 118.02 18.2295C117.321 18.2295 116.758 18.459 116.332 18.918C115.917 19.377 115.709 20.0437 115.709 20.918V25H114.02ZM126.161 25V18.3443H123.899V16.918H126.161V15.1475C126.161 14.6557 126.308 14.2623 126.603 13.9672C126.899 13.6721 127.292 13.5246 127.784 13.5246H129.866V14.9508H128.325C128.008 14.9508 127.849 15.1148 127.849 15.4426V16.918H130.177V18.3443H127.849V25H126.161Z" fill="white"/>
<g clip-path="url(#clip0_2352_6929)">
<path d="M19.6206 0.0534857C24.5165 -0.308334 29.3712 1.17505 33.2456 4.2156C33.8751 4.70969 34.4716 5.23925 35.0327 5.80056C34.6969 6.02329 34.3788 6.28396 34.0835 6.58181C32.866 7.80973 32.2822 9.43396 32.3305 11.0427C31.9895 11.2511 31.668 11.5045 31.3735 11.8015C30.5613 12.6207 30.0826 13.6489 29.9389 14.7146C29.2857 13.5991 28.4279 12.6057 27.3969 11.7966C25.3838 10.2168 22.8608 9.44654 20.3169 9.63454C17.7729 9.82255 15.3888 10.9562 13.6255 12.8152C11.8622 14.6742 10.8446 17.1264 10.771 19.698C10.6973 22.2697 11.573 24.7776 13.227 26.7361C14.881 28.6945 17.1962 29.9648 19.7251 30.3006C22.2541 30.6363 24.8173 30.0136 26.9174 28.5535C28.1481 27.6978 29.1659 26.5885 29.9184 25.3142C30.0302 26.4442 30.5153 27.5433 31.3735 28.409C31.6667 28.7047 31.9873 28.956 32.3266 29.1638C32.3313 30.7055 32.9173 32.2454 34.0835 33.4216C34.3772 33.718 34.694 33.977 35.0278 34.199C34.1991 35.0276 33.2955 35.7873 32.3227 36.4636C28.2809 39.2736 23.3489 40.4711 18.4819 39.825C13.615 39.1788 9.15916 36.7346 5.97604 32.9656C2.7928 29.1964 1.10878 24.3699 1.25045 19.4207C1.39221 14.4716 3.34919 9.75123 6.74264 6.1736C10.1361 2.59606 14.7248 0.415354 19.6206 0.0534857ZM40.5942 16.5134L40.3237 16.5613C40.4112 16.5302 40.4982 16.4971 40.5844 16.4617C40.5875 16.479 40.5912 16.4962 40.5942 16.5134Z" fill="#E852A2"/>
<line x1="0.535563" y1="-0.535563" x2="4.75211" y2="-0.535563" transform="matrix(-0.824348 0.566083 -0.5595 -0.82883 26.4219 3.74219)" stroke="#009402" stroke-width="1.07113" stroke-linecap="round"/>
<line x1="0.535557" y1="-0.535557" x2="4.74076" y2="-0.535557" transform="matrix(-0.965368 -0.260893 0.256759 -0.966475 17.6562 5.92725)" stroke="#FFD700" stroke-width="1.07111" stroke-linecap="round"/>
<line x1="0.535563" y1="-0.535563" x2="4.75211" y2="-0.535563" transform="matrix(-0.824348 0.566083 -0.5595 -0.82883 11.125 10.8975)" stroke="#009402" stroke-width="1.07113" stroke-linecap="round"/>
<line x1="0.535562" y1="-0.535562" x2="4.74908" y2="-0.535562" transform="matrix(-0.864162 -0.503213 0.496794 -0.867869 9.04688 22.2832)" stroke="#FFD700" stroke-width="1.07112" stroke-linecap="round"/>
<line x1="0.535563" y1="-0.535563" x2="4.75211" y2="-0.535563" transform="matrix(-0.824348 0.566083 -0.5595 -0.82883 10.7969 26.9399)" stroke="#009402" stroke-width="1.07113" stroke-linecap="round"/>
<line x1="0.535557" y1="-0.535557" x2="4.74076" y2="-0.535557" transform="matrix(-0.965368 -0.260893 0.256759 -0.966475 17.6562 33.6147)" stroke="#FFD700" stroke-width="1.07111" stroke-linecap="round"/>
<line x1="0.535563" y1="-0.535563" x2="4.75211" y2="-0.535563" transform="matrix(-0.824348 0.566083 -0.5595 -0.82883 26.2344 32.9268)" stroke="#009402" stroke-width="1.07113" stroke-linecap="round"/>
</g>
<defs>
<clipPath id="clip0_2352_6929">
<rect width="40.8529" height="39.9881" fill="white" transform="translate(1.24219)"/>
</clipPath>
</defs>
</svg>
